PathFileType	4	(X/Y/Z)	C:/Users/beibeiliu/ov580/test_trc/User3\sequence.40_training_dense_right.trc
DataRate	CameraRate	NumFrames	NumMarkers	Units	OrigDataRate	OrigDataStartFrame	OrigNumFrames
120	120	22	19	mm	120	36	287
Frame#	Time	ThumbCMC			ThumbMCP			ThumbIP			ThumbTip			IndexMCP			IndexPIP			IndexTip			MiddleMCP			MiddlePIP			MiddleTip			RingMCP			RingPIP			RingTip			PinkyMCP			PinkyPIP			PinkyTip			BackHand1			BackHand2			BackHand3	
		X0	Y0	Z0	X1	Y1	Z1	X2	Y2	Z2	X3	Y3	Z3	X4	Y4	Z4	X5	Y5	Z5	X6	Y6	Z6	X7	Y7	Z7	X8	Y8	Z8	X9	Y9	Z9	X10	Y10	Z10	X11	Y11	Z11	X12	Y12	Z12	X13	Y13	Z13	X14	Y14	Z14	X15	Y15	Z15	X16	Y16	Z16	X17	Y17	Z17	X18	Y18	Z18	
35	0.291667	134.746	-2.23192	22.9532	111.904	12.7056	-7.96702	93.5256	17.7982	-28.9489	74.9515	8.06513	-43.354	134.308	-22.5111	-55.6892	118.916	-14.4469	-75.8429	102.678	3.20292	-90.2026	115.793	-39.5637	-58.0917	96.5516	-24.66	-77.6754	70.3082	-0.14154	-75.4109	103.155	-54.2261	-43.6029	87.3425	-41.1462	-68.9246	62.8417	-18.7874	-70.0106	92.9321	-64.4479	-27.5148	81.6495	-64.9223	-44.9899	63.8487	-52.9029	-64.2883	126.202	-60.5258	7.01841	128.087	-61.4387	38.5788	147.608	-40.276	15.0949	
36	0.3	134.878	-3.41813	19.5003	112.543	10.2417	-4.23588	91.8342	10.7088	-32.8284	73.4758	2.32245	-44.1713	132.696	-27.2649	-53.0488	122.67	-14.7518	-77.8958	102.188	-1.53533	-89.6415	117.722	-37.3794	-57.084	97.516	-24.4345	-75.4844	72.2442	5.92169	-74.7657	102.444	-51.6935	-43.0757	82.2106	-37.4737	-65.038	63.2741	-12.8228	-62.5707	89.8757	-63.7331	-22.6922	75.4336	-62.4607	-49.3288	64.6936	-51.2573	-62.6676	123.81	-59.6828	7.80908	128.696	-61.4034	33.7342	148.409	-39.7881	18.2895	
37	0.308333	134.774	-3.9319	24.2357	114.003	11.2491	-4.94998	92.6849	9.33402	-33.5779	73.8283	-2.31916	-44.1063	133.92	-27.1725	-50.6056	122.18	-19.026	-76.434	106.253	1.21435	-92.2862	115.835	-39.2812	-55.7201	94.8506	-23.9262	-74.2209	70.9637	5.28761	-69.3742	101.49	-51.5889	-42.724	80.8899	-34.0435	-63.2978	65.4992	-9.93782	-59.6348	88.4333	-63.7508	-24.9355	75.5638	-59.5759	-48.8027	63.1503	-43.1129	-63.6159	123.633	-62.4496	9.64796	125.718	-64.8034	35.0468	147.66	-40.7283	13.6541	
38	0.316667	137.34	-3.97474	24.4684	116.364	9.80977	-5.025	95.7753	8.28114	-32.6546	76.6572	-0.677554	-42.2956	133.954	-27.9952	-53.9158	124.087	-16.9675	-78.6663	105.039	0.428087	-91.6476	114.363	-41.3192	-53.5265	98.4954	-21.8614	-74.1266	75.0751	9.8701	-68.2976	101.756	-48.7146	-45.9533	82.8219	-36.9675	-62.386	67.16	-8.21545	-59.2833	89.8913	-61.7131	-23.4337	76.426	-59.8651	-44.6514	64.6006	-41.9822	-60.2893	122.562	-60.9767	9.66888	127.44	-62.4442	34.8872	148.668	-43.1764	15.1512	
39	0.325	140.121	-2.08956	22.9928	116.709	6.48936	-8.75614	96.9628	4.21355	-31.0383	77.8737	-1.68775	-41.3486	137.964	-28.3879	-48.6603	128.32	-19.2298	-77.0556	110.065	-0.869473	-92.7006	117.685	-40.7633	-56.1433	96.7994	-22.7089	-75.3913	75.5279	7.15947	-68.2092	99.454	-51.7782	-45.694	84.0644	-35.8964	-63.8966	68.1267	-7.63322	-60.0775	91.4892	-60.0234	-24.9749	75.2008	-56.7982	-47.2278	61.5173	-35.8461	-59.3167	119.754	-63.8425	9.58362	123.673	-63.9152	39.3618	149.849	-43.7544	15.3501	
40	0.333333	140.261	-5.44511	19.8828	116.947	6.07225	-6.40128	96.5696	6.36726	-30.3121	77.4493	-5.01689	-41.8089	138.356	-31.5025	-50.3409	125.223	-22.9229	-76.6171	106.783	-2.29215	-92.9601	115.417	-47.3485	-53.23	101.82	-30.5191	-75.9399	78.7479	1.5895	-76.107	99.6112	-55.3747	-40.6003	85.2554	-41.0961	-64.6376	67.3562	-15.5832	-65.0394	85.4028	-62.4782	-23.7805	70.6146	-54.8392	-45.9597	57.9306	-32.9181	-54.8331	120.67	-63.2042	8.80805	124.322	-65.8608	38.3209	145.768	-45.8274	17.0336	
41	0.341667	139.679	-7.90901	20.8033	117.781	7.33152	-5.75794	95.8389	1.99708	-30.2302	74.3584	-7.60479	-42.7394	138.871	-32.8896	-51.5844	125.174	-23.6812	-77.9433	110.93	-5.04829	-92.114	118.057	-49.8778	-56.3817	100.617	-37.5819	-78.5089	78.6826	-6.8093	-83.3062	100.445	-58.0085	-43.8779	89.0947	-47.3427	-65.8199	68.3606	-18.0475	-69.0057	84.1301	-61.0092	-21.7629	71.1697	-48.4394	-46.6421	57.6661	-27.9736	-49.9667	120.083	-65.6948	11.2702	122.078	-64.1992	35.9801	149.093	-45.2954	17.0473	
42	0.35	139.426	-10.7177	20.2461	117.296	3.82179	-4.84943	94.9931	1.40947	-31.2619	73.6928	-9.62446	-43.5809	133.689	-36.3783	-52.9455	123.331	-27.2462	-75.634	108.066	-7.87918	-90.1686	116.894	-54.3402	-55.1149	104.358	-44.708	-78.1936	83.8227	-14.5848	-90.5321	104.634	-57.7604	-42.071	89.232	-49.873	-67.2821	74.8832	-25.8544	-75.4672	82.4629	-60.5992	-22.6841	68.4921	-50.4185	-43.307	57.8547	-23.223	-49.1835	120.066	-66.2283	11.2872	121.391	-66.4608	36.285	148.089	-47.2661	14.0005	
43	0.358333	141.128	-9.15037	21.0906	117.036	1.02324	-4.13609	96.2909	0.389474	-27.7507	76.9195	-9.32572	-39.0456	134.768	-37.7141	-47.4219	123.485	-24.8619	-78.8666	109.105	-7.91653	-90.1282	120.221	-53.7085	-49.6174	109.14	-44.114	-80.2661	89.3058	-19.391	-93.9708	105.249	-60.2398	-39.6118	90.3525	-50.2498	-68.0513	71.8783	-29.7773	-75.6248	82.3734	-60.7078	-24.4121	71.1053	-47.0528	-43.4185	58.8576	-22.5254	-47.4384	120.848	-66.2247	11.988	123.363	-67.7856	37.0851	146.213	-49.6502	19.2606	
44	0.366667	137.913	-12.9808	20.3909	117.332	0.70624	-2.6688	96.2654	0.432174	-26.1919	75.7473	-9.22443	-39.1593	135.745	-37.1689	-52.396	125.732	-26.3314	-75.95	104.696	-8.8537	-88.9487	121.607	-53.9675	-52.5823	106.963	-46.8066	-79.8935	88.6441	-21.3908	-96.1901	103.824	-60.2698	-43.2186	90.6105	-50.8724	-68.5964	72.5258	-30.3138	-76.5684	86.1911	-57.0178	-24.2927	69.2256	-44.6467	-42.7605	62.4234	-20.9059	-47.5906	120.783	-68.9093	7.91297	123.05	-66.9654	40.8992	148.948	-48.7255	19.4253	
45	0.375	138.337	-12.4223	21.3922	116.318	1.63332	-5.44555	95.5035	2.82293	-29.2834	73.4389	-8.03793	-41.6291	135.462	-38.2751	-47.2472	126.128	-25.3796	-75.7058	106.404	-6.29213	-90.2291	123.741	-54.282	-51.7377	112.801	-47.4647	-79.0539	89.0728	-24.3844	-97.3143	106.214	-58.9899	-38.9337	90.378	-51.0017	-67.3663	72.6286	-29.9508	-77.764	82.9728	-59.6162	-25.608	72.6155	-46.7871	-40.9296	55.9317	-22.3544	-46.4159	122.811	-66.3269	10.1022	122.954	-70.5051	41.8161	151.189	-47.928	16.0929	
46	0.383333	139.691	-9.19409	20.8115	116.425	2.23069	-3.82955	92.8499	3.62091	-29.8742	74.9706	-5.47736	-37.1318	138.044	-34.9669	-49.2315	124.007	-27.1448	-75.2615	103.812	-7.72814	-90.5996	122.778	-54.7218	-50.7151	111.818	-46.9951	-80.4991	89.8477	-26.0246	-97.9117	106.389	-59.2948	-39.2506	89.7274	-49.9031	-66.5795	71.2876	-26.8213	-74.2854	81.7103	-61.7094	-25.802	66.4732	-45.0156	-41.9283	59.7505	-22.9679	-46.1454	118.336	-69.1083	7.53324	123.389	-70.9965	37.2131	148.179	-50.0333	17.3342	
47	0.391667	138.579	-11.8465	25.0463	116.123	5.10063	-4.22064	94.7574	6.44801	-27.1829	74.7223	-7.80686	-37.3768	138.868	-33.5996	-47.9056	122.659	-27.12	-75.7237	109.39	-7.44017	-90.5365	120.158	-55.2871	-51.9731	108.717	-44.6114	-81.837	88.7132	-21.0565	-98.956	103.938	-58.7761	-38.7525	83.6761	-46.8562	-64.1358	69.1698	-22.6179	-67.2235	83.813	-60.8033	-24.3479	72.1288	-46.54	-41.5647	59.7728	-24.4748	-46.759	120.73	-70.5975	11.287	126.979	-69.0771	41.1805	149.801	-48.5319	21.0723	
48	0.4	139.131	-9.74518	23.7353	116.375	5.49445	-2.82853	93.5343	3.50942	-28.1307	75.1625	-4.94994	-37.1039	134.693	-35.2952	-52.7329	127.649	-24.6215	-74.9223	107.486	-10.2523	-89.2561	118.434	-53.9609	-52.3538	108.459	-42.4655	-79.4347	86.2612	-18.5044	-95.6692	103.03	-56.0693	-40.8632	83.8333	-44.2772	-60.3617	63.4706	-13.6211	-57.0156	84.0894	-61.1924	-21.9401	66.9934	-48.7935	-39.8955	59.6012	-24.2876	-44.2402	120.58	-69.4453	13.0794	125.31	-71.0734	38.993	149.935	-48.6827	19.5781	
49	0.408333	137.294	-11.6721	22.5381	114.484	1.50545	-6.9401	93.9848	3.32811	-26.4435	73.7886	-10.6218	-38.0059	134.789	-34.4671	-48.7588	122.003	-23.2682	-77.4719	104.367	-7.04735	-91.5395	121.913	-50.4352	-49.4805	102.019	-41.4814	-79.4548	83.5825	-17.74	-91.3107	97.9074	-56.0404	-40.6721	83.0329	-39.6833	-59.2914	62.6927	-11.2155	-53.3933	87.7058	-60.8121	-21.9233	68.3748	-49.2122	-39.5661	59.1057	-26.5681	-44.3917	121.453	-69.6977	10.2883	126.826	-67.4424	38.3913	150.239	-49.0329	19.7151	
50	0.416667	137.754	-8.00709	19.8616	113.806	5.43791	-5.70334	93.3678	2.79807	-26.3133	72.339	-12.1365	-39.4518	137.36	-33.0136	-51.7978	125.772	-22.8826	-77.6829	108.212	-8.61738	-92.0989	119.824	-49.6968	-54.9281	106.217	-38.7755	-77.4914	78.7056	-17.9584	-88.6357	97.5406	-55.7596	-40.437	80.6276	-39.7064	-57.4335	60.4059	-11.6171	-50.7414	87.118	-61.4445	-23.7847	73.6042	-49.2754	-42.8153	55.4012	-28.5238	-43.2038	124.083	-67.7448	6.68653	128.554	-68.7256	36.8393	148.643	-47.7633	20.3347	
51	0.425	138.071	-5.25056	23.1928	113.026	2.73026	-6.61961	91.9613	1.15654	-25.1468	72.0255	-12.3843	-37.9179	136.268	-33.3646	-48.6283	125.171	-23.9978	-74.393	109.266	-5.87073	-92.9455	119.798	-49.407	-50.116	105.226	-38.48	-76.7678	79.7626	-11.5591	-89.6396	97.1836	-55.9093	-38.8828	79.7512	-35.188	-59.0594	59.8558	-11.3472	-50.9958	87.5437	-62.338	-25.112	70.8722	-54.8311	-40.4426	55.6082	-28.939	-48.6897	123.972	-67.5865	6.9858	125.894	-69.7316	39.0239	151.254	-46.2455	18.7262	
52	0.433333	137.678	-6.00843	21.5403	111.543	6.1514	-5.15284	90.0925	0.893064	-25.7146	70.8867	-7.43416	-37.8552	133.616	-31.2098	-52.5304	125.076	-19.1142	-78.2587	103.071	-5.56028	-93.6765	117.443	-49.4792	-53.6513	105.075	-35.6452	-77.4217	76.8584	-13.6477	-87.7274	98.74	-52.8653	-42.5321	79.6125	-37.3247	-58.2843	59.6478	-11.3432	-51.8626	88.6825	-63.2624	-23.4569	73.388	-55.8805	-43.5397	57.2478	-36.2311	-52.6883	122.472	-68.8604	8.50559	129.009	-65.8448	40.4611	147.932	-45.995	18.3562	
53	0.441667	136.612	-5.91574	22.4792	111.433	8.63927	-4.06682	89.9287	6.22673	-23.5917	68.3725	-6.33987	-39.7902	134.432	-30.0746	-49.4345	123.422	-21.684	-74.4293	104.707	-6.93945	-90.392	120.113	-46.1834	-52.5406	101.198	-34.8954	-80.1222	77.3849	-14.203	-88.956	97.0269	-54.4169	-43.2943	79.0529	-39.8252	-58.9197	62.6972	-9.75082	-54.2827	86.8887	-65.4752	-21.7185	70.9982	-61.0072	-41.2301	58.893	-42.2823	-55.5468	123.347	-68.2392	10.4901	128.8	-67.0049	38.4925	151.134	-44.7252	16.8678	
54	0.45	134.259	-7.82739	23.6581	111.135	6.02435	-0.313904	89.1615	6.05649	-25.2266	70.8593	0.268544	-36.5304	131.234	-29.5696	-52.9999	120.41	-17.1311	-78.0639	104.187	-4.3738	-90.9758	118.357	-45.9902	-54.4147	101.452	-33.2889	-80.5043	81.3244	-11.3442	-90.3345	99.2408	-52.4719	-43.7342	78.423	-41.7637	-59.4722	62.0491	-15.2353	-56.5682	86.5886	-65.5807	-25.1094	71.4802	-59.328	-44.1592	53.4726	-40.5722	-57.0671	123.106	-65.0186	6.92338	126.626	-67.4406	38.9631	149.897	-44.7702	14.271	
55	0.458333	132.99	-8.5309	22.9434	110.009	4.65421	-2.95519	89.7971	9.559	-22.5445	69.5616	1.0476	-38.3992	131.549	-27.1985	-51.6107	117.979	-18.0828	-75.3437	102.62	-4.50184	-89.6714	117.109	-46.1468	-53.1628	102.195	-33.9444	-78.4777	75.6216	-10.0812	-89.3981	98.1155	-56.4656	-40.0313	81.3847	-38.6669	-62.8995	58.8351	-17.2448	-57.8623	87.3712	-65.2777	-21.9373	69.4153	-61.8299	-43.8138	57.5686	-43.8162	-57.6698	121.772	-67.2096	7.01455	125.707	-66.6345	39.3159	149.794	-42.4851	14.9915	
56	0.466667	133.41	-8.21406	22.6737	109.571	7.26569	-1.91795	90.687	9.89302	-23.9753	71.7003	7.23757	-39.153	128.856	-28.9073	-51.0558	120.166	-17.4952	-73.2615	100.783	-2.2425	-90.4447	116.589	-45.973	-52.1056	100.506	-35.1434	-75.8623	76.2833	-8.41426	-84.9307	101.314	-54.8778	-40.0364	79.5902	-45.1594	-62.3493	59.946	-21.6116	-60.3301	88.5946	-64.7142	-22.7303	70.2599	-64.0146	-42.8504	53.329	-45.3215	-54.6349	119.76	-66.7971	10.3805	125.89	-67.54	38.5534	146.222	-44.9064	15.9526	
